/* XPM */
static char * RhythmCat_Icon_xpm[] = {
"32 32 603 2",
"  	c None",
". 	c #1E67B8",
"+ 	c #1C66B6",
"@ 	c #256AB9",
"# 	c #296CBA",
"$ 	c #105AAB",
"% 	c #00489C",
"& 	c #004DA3",
"* 	c #004B9F",
"= 	c #00499C",
"- 	c #004B9E",
"; 	c #00489D",
"> 	c #0751A3",
", 	c #1B5DA7",
"' 	c #0C519D",
") 	c #014C9C",
"! 	c #004796",
"~ 	c #064FA0",
"{ 	c #379CFF",
"] 	c #003F8A",
"^ 	c #1A6EC6",
"/ 	c #003E89",
"( 	c #034C9A",
"_ 	c #00428E",
": 	c #00408D",
"< 	c #014999",
"[ 	c #125299",
"} 	c #489CF5",
"| 	c #064892",
"1 	c #1863B3",
"2 	c #2E82DB",
"3 	c #1F6DBF",
"4 	c #155EAF",
"5 	c #1A66B8",
"6 	c #277AD1",
"7 	c #2171C6",
"8 	c #1E6CC0",
"9 	c #2D83DD",
"0 	c #3997F6",
"a 	c #1A68BC",
"b 	c #528EC9",
"c 	c #6E99C1",
"d 	c #7299BD",
"e 	c #89B9E4",
"f 	c #217CDC",
"g 	c #0D4A90",
"h 	c #3B81CB",
"i 	c #2A72C0",
"j 	c #3C8CDF",
"k 	c #4CA3FD",
"l 	c #1F65B1",
"m 	c #3988DC",
"n 	c #4297EE",
"o 	c #3787DA",
"p 	c #13539A",
"q 	c #459CF5",
"r 	c #3C8FE5",
"s 	c #459DF9",
"t 	c #3886D5",
"u 	c #839DB7",
"v 	c #C5DBE4",
"w 	c #C7D9DE",
"x 	c #55AAFF",
"y 	c #2E6EB1",
"z 	c #49A6FF",
"A 	c #023B7C",
"B 	c #0A488C",
"C 	c #1658A1",
"D 	c #2F80D4",
"E 	c #41A2FF",
"F 	c #3C7BBB",
"G 	c #5DACFF",
"H 	c #5AAEFF",
"I 	c #57ABFF",
"J 	c #5AADFF",
"K 	c #3F8AD9",
"L 	c #59ADFF",
"M 	c #296BB1",
"N 	c #54A9FF",
"O 	c #367BC4",
"P 	c #418AD5",
"Q 	c #59ABFF",
"R 	c #3D86D4",
"S 	c #5BAFFF",
"T 	c #3A83CF",
"U 	c #8BA3BA",
"V 	c #C6DAE4",
"W 	c #BCD5E3",
"X 	c #4EA8FF",
"Y 	c #6E99C3",
"Z 	c #4FA7FF",
"` 	c #55ACFF",
" .	c #4696E8",
"..	c #55ADFF",
"+.	c #52AAFF",
"@.	c #4583C1",
"#.	c #6DB5FF",
"$.	c #7AB8F2",
"%.	c #A5C5D4",
"&.	c #AFD1E3",
"*.	c #93B9D6",
"=.	c #5C76A4",
"-.	c #374889",
";.	c #586EA7",
">.	c #B4D0E2",
",.	c #63B0FF",
"'.	c #5DA6F0",
").	c #4584C7",
"!.	c #4C90D7",
"~.	c #6CB9FF",
"{.	c #3A6BA1",
"].	c #D0E0E7",
"^.	c #CBDDE5",
"/.	c #9CC8F0",
"(.	c #94C5F1",
"_.	c #CCDBDF",
":.	c #5CACFF",
"<.	c #61AEFF",
"[.	c #60AEFF",
"}.	c #5BA2EB",
"|.	c #90BFE5",
"1.	c #A8C6D2",
"2.	c #A3C4D5",
"3.	c #25386A",
"4.	c #000055",
"5.	c #000D73",
"6.	c #00127D",
"7.	c #001783",
"8.	c #001882",
"9.	c #C2DCEB",
"0.	c #8CC4FD",
"a.	c #64A4E3",
"b.	c #5893D1",
"c.	c #BED5E4",
"d.	c #D4E4EC",
"e.	c #D1E2E9",
"f.	c #BBD7EC",
"g.	c #D4E2E5",
"h.	c #D3E0E3",
"i.	c #84BEF9",
"j.	c #70B6FF",
"k.	c #70B7FF",
"l.	c #5588BC",
"m.	c #8BC2FB",
"n.	c #A5C4D1",
"o.	c #91B0C4",
"p.	c #000541",
"q.	c #001560",
"r.	c #001969",
"s.	c #001A73",
"t.	c #001B7B",
"u.	c #001C82",
"v.	c #001983",
"w.	c #7892C3",
"x.	c #ABD3F7",
"y.	c #80BCFB",
"z.	c #629AD5",
"A.	c #ACD3F8",
"B.	c #E1ECEE",
"C.	c #A5B7CB",
"D.	c #CBDBE9",
"E.	c #AAD1F5",
"F.	c #8FC5FB",
"G.	c #94C6F9",
"H.	c #80C0FF",
"I.	c #82BFFF",
"J.	c #81BFFE",
"K.	c #82C1FF",
"L.	c #4F759A",
"M.	c #99C2E1",
"N.	c #9FC0D1",
"O.	c #00053F",
"P.	c #001959",
"Q.	c #001E57",
"R.	c #001F64",
"S.	c #00206E",
"T.	c #002376",
"U.	c #00237F",
"V.	c #002084",
"W.	c #2D55AB",
"X.	c #9CD1FF",
"Y.	c #C7DEF1",
"Z.	c #D4E6F3",
"`.	c #E2EBEE",
" +	c #C3D3DF",
".+	c #031927",
"++	c #536B6A",
"@+	c #E0EEF9",
"#+	c #94C8FE",
"$+	c #9ACDFF",
"%+	c #7C9DC1",
"&+	c #8FC5FD",
"*+	c #91C7FF",
"=+	c #97CDFF",
"-+	c #476482",
";+	c #ABD2E8",
">+	c #192A57",
",+	c #001657",
"'+	c #001E51",
")+	c #002157",
"!+	c #002364",
"~+	c #00246B",
"{+	c #002875",
"]+	c #13345F",
"^+	c #2E4A42",
"/+	c #536E62",
"(+	c #BDE0FF",
"_+	c #E2EBED",
":+	c #E0EBEF",
"<+	c #EAF4FE",
"[+	c #879A5A",
"}+	c #BDCC56",
"|+	c #B4C15F",
"1+	c #CEDEE9",
"2+	c #E0EBF0",
"3+	c #B7D9F9",
"4+	c #DBE8EE",
"5+	c #A5C0D9",
"6+	c #B5D8FB",
"7+	c #89B3DE",
"8+	c #5F7EA2",
"9+	c #000E49",
"0+	c #002252",
"a+	c #002458",
"b+	c #002763",
"c+	c #002768",
"d+	c #002A72",
"e+	c #506750",
"f+	c #C7D465",
"g+	c #A3B73F",
"h+	c #C9E3FF",
"i+	c #E4EDF0",
"j+	c #E6EEF2",
"k+	c #E0EDFF",
"l+	c #97A240",
"m+	c #95A04F",
"n+	c #C9D285",
"o+	c #395A6B",
"p+	c #DFEBF6",
"q+	c #D0E6F6",
"r+	c #CDE2F1",
"s+	c #D0E7FB",
"t+	c #A2C8EE",
"u+	c #09244E",
"v+	c #001E4F",
"w+	c #00224F",
"x+	c #002754",
"y+	c #002C59",
"z+	c #002A5E",
"A+	c #002C67",
"B+	c #002C6F",
"C+	c #4D664E",
"D+	c #BFCB73",
"E+	c #899648",
"F+	c #CEEAFF",
"G+	c #E9F0F2",
"H+	c #ECF2F5",
"I+	c #DDE8F1",
"J+	c #001A50",
"K+	c #123941",
"L+	c #D4DB8A",
"M+	c #022C42",
"N+	c #0A3866",
"O+	c #64839E",
"P+	c #B7CAD9",
"Q+	c #8AA8CA",
"R+	c #40576F",
"S+	c #002144",
"T+	c #00254E",
"U+	c #002850",
"V+	c #002A52",
"W+	c #002C55",
"X+	c #00325F",
"Y+	c #003064",
"Z+	c #002E6B",
"`+	c #4D684C",
" @	c #B5BB65",
".@	c #002268",
"+@	c #AFCEEC",
"@@	c #EFF4F6",
"#@	c #F0F5F7",
"$@	c #EAF3FB",
"%@	c #002058",
"&@	c #1B423E",
"*@	c #D2D989",
"=@	c #063246",
"-@	c #002C53",
";@	c #00284C",
">@	c #001B3D",
",@	c #001634",
"'@	c #1C4063",
")@	c #20456B",
"!@	c #002448",
"~@	c #00284E",
"{@	c #002952",
"]@	c #15416C",
"^@	c #5B80A4",
"/@	c #002553",
"(@	c #003666",
"_@	c #003169",
":@	c #4D694C",
"<@	c #B5BC66",
"[@	c #002C65",
"}@	c #94B4D5",
"|@	c #F1F7FA",
"1@	c #F2F7F8",
"2@	c #FFFFFF",
"3@	c #002C69",
"4@	c #1B423D",
"5@	c #D1D889",
"6@	c #053248",
"7@	c #002F59",
"8@	c #002D55",
"9@	c #002A51",
"0@	c #00264B",
"a@	c #143A60",
"b@	c #183D66",
"c@	c #00244D",
"d@	c #002852",
"e@	c #001B49",
"f@	c #DBEAFA",
"g@	c #7B97B2",
"h@	c #002C5F",
"i@	c #00336C",
"j@	c #4D6A4D",
"k@	c #B4BB66",
"l@	c #002F6A",
"m@	c #4E7CAA",
"n@	c #F4F8F9",
"o@	c #27568A",
"p@	c #19403D",
"q@	c #D1D788",
"r@	c #05324C",
"s@	c #002F5D",
"t@	c #002D58",
"u@	c #002A53",
"v@	c #00264E",
"w@	c #082C52",
"x@	c #153A65",
"y@	c #00224E",
"z@	c #002552",
"A@	c #0B3769",
"B@	c #AFBED0",
"C@	c #EAF6FF",
"D@	c #0B3867",
"E@	c #00356F",
"F@	c #4D6B4D",
"G@	c #B3BA66",
"H@	c #00326D",
"I@	c #F9FFFF",
"J@	c #FBFDFD",
"K@	c #708FB4",
"L@	c #153A3B",
"M@	c #D1D787",
"N@	c #042F4F",
"O@	c #002D5F",
"P@	c #002B59",
"Q@	c #002855",
"R@	c #002550",
"S@	c #02244D",
"T@	c #153A68",
"U@	c #002453",
"V@	c #1B4476",
"W@	c #9AA7B8",
"X@	c #022450",
"Y@	c #E6F3FF",
"Z@	c #7892B0",
"`@	c #002F6C",
" #	c #B3BA67",
".#	c #00306C",
"+#	c #00376C",
"@#	c #1D5993",
"##	c #FBFBFC",
"$#	c #0F383C",
"%#	c #CFD687",
"&#	c #032D50",
"*#	c #002B5F",
"=#	c #00295A",
"-#	c #002756",
";#	c #002451",
">#	c #02234F",
",#	c #183E6D",
"'#	c #00214F",
")#	c #002452",
"!#	c #002557",
"~#	c #7F94AD",
"{#	c #FAFFFF",
"]#	c #D8E8FA",
"^#	c #D8EDFF",
"/#	c #001754",
"(#	c #4B684D",
"_#	c #B2B966",
":#	c #002B6A",
"<#	c #00336B",
"[#	c #00225A",
"}#	c #F0F7FF",
"|#	c #FAFCFC",
"1#	c #5B7265",
"2#	c #CBD385",
"3#	c #022B4F",
"4#	c #00295D",
"5#	c #002858",
"6#	c #002554",
"7#	c #002251",
"8#	c #082C58",
"9#	c #204979",
"0#	c #001E4D",
"a#	c #00184A",
"b#	c #AFC6E3",
"c#	c #99ADC3",
"d#	c #001F4E",
"e#	c #D4E9FF",
"f#	c #5C7986",
"g#	c #69793F",
"h#	c #AFB868",
"i#	c #002565",
"j#	c #042E50",
"k#	c #A0A758",
"l#	c #A6C8C7",
"m#	c #F7FAFC",
"n#	c #9DADB6",
"o#	c #C3CC67",
"p#	c #03284E",
"q#	c #002659",
"r#	c #002556",
"s#	c #002354",
"t#	c #00204E",
"u#	c #153B6A",
"v#	c #001B48",
"w#	c #00204F",
"x#	c #002054",
"y#	c #0D2D49",
"z#	c #546E8D",
"A#	c #E6FAFF",
"B#	c #CDE5FD",
"C#	c #B9D7FD",
"D#	c #98AA46",
"E#	c #AAB35D",
"F#	c #001757",
"G#	c #5B6D42",
"H#	c #C0CF5F",
"I#	c #B0BD3E",
"J#	c #B5D1C8",
"K#	c #F4F8FA",
"L#	c #E8F1FC",
"M#	c #40563B",
"N#	c #00215B",
"O#	c #002253",
"P#	c #002150",
"Q#	c #001E4C",
"R#	c #1D4577",
"S#	c #0D3061",
"T#	c #001C4C",
"U#	c #001D47",
"V#	c #AEBA57",
"W#	c #D6EEFF",
"X#	c #5E7A9B",
"Y#	c #1F416D",
"Z#	c #B8D6F5",
"`#	c #A2C4E2",
" $	c #324529",
".$	c #001947",
"+$	c #092439",
"@$	c #798750",
"#$	c #9BA74F",
"$$	c #889858",
"%$	c #E2ECFA",
"&$	c #022051",
"*$	c #002255",
"=$	c #002151",
"-$	c #00204D",
";$	c #001743",
">$	c #265488",
",$	c #001946",
"'$	c #001A4F",
")$	c #4D5E39",
"!$	c #435C4E",
"~$	c #3A587E",
"{$	c #D9F6FF",
"]$	c #B4D5F6",
"^$	c #668DB9",
"/$	c #7499C6",
"($	c #000A30",
"_$	c #001B43",
":$	c #001648",
"<$	c #00154C",
"[$	c #00174D",
"}$	c #001343",
"|$	c #072451",
"1$	c #001F50",
"2$	c #002050",
"3$	c #001F4D",
"4$	c #001D4B",
"5$	c #1E477B",
"6$	c #5087BD",
"7$	c #0E3162",
"8$	c #002864",
"9$	c #001E59",
"0$	c #C3E3FF",
"a$	c #597A9F",
"b$	c #000D42",
"c$	c #557EAC",
"d$	c #BCE5FF",
"e$	c #729DCA",
"f$	c #001643",
"g$	c #00214E",
"h$	c #002456",
"i$	c #002457",
"j$	c #002352",
"k$	c #001642",
"l$	c #5CA5F2",
"m$	c #4377AA",
"n$	c #011B49",
"o$	c #003A74",
"p$	c #00427F",
"q$	c #023F7C",
"r$	c #001F48",
"s$	c #769CC5",
"t$	c #C2ECFF",
"u$	c #4D79AC",
"v$	c #98C9FA",
"w$	c #8ABDF2",
"x$	c #073A71",
"y$	c #002658",
"z$	c #002C61",
"A$	c #002758",
"B$	c #002655",
"C$	c #002856",
"D$	c #3E76B5",
"E$	c #5CB1FF",
"F$	c #38628D",
"G$	c #356AA4",
"H$	c #001A47",
"I$	c #005FA6",
"J$	c #005CA4",
"K$	c #1E72B4",
"L$	c #99BFE9",
"M$	c #1C4475",
"N$	c #3D6B9F",
"O$	c #A5D8FF",
"P$	c #659AD4",
"Q$	c #96CFFF",
"R$	c #5191CD",
"S$	c #033F78",
"T$	c #002B61",
"U$	c #002759",
"V$	c #002755",
"W$	c #002857",
"X$	c #002A5D",
"Y$	c #3878BB",
"Z$	c #5EB2FF",
"`$	c #56ABFF",
" %	c #042354",
".%	c #0073C2",
"+%	c #0080D4",
"@%	c #0073C3",
"#%	c #2B5E93",
"$%	c #B0DFFF",
"%%	c #4A7DB5",
"&%	c #235996",
"*%	c #90CCFF",
"=%	c #4C8ACD",
"-%	c #87C9FF",
";%	c #5AA2E8",
">%	c #438ED0",
",%	c #327DBE",
"'%	c #3785CF",
")%	c #60AEFE",
"!%	c #5CB0FF",
"~%	c #53ABFF",
"{%	c #3A6B9C",
"]%	c #163668",
"^%	c #004F8F",
"/%	c #009DF5",
"(%	c #009DF7",
"_%	c #2EA3EB",
":%	c #0B4078",
"<%	c #31629F",
"[%	c #8FD1FF",
"}%	c #00377E",
"|%	c #5B9FE6",
"1%	c #74BDFF",
"2%	c #1561B3",
"3%	c #5AA8F9",
"4%	c #61B1FF",
"5%	c #1D74D4",
"6%	c #2782E4",
"7%	c #3F81C5",
"8%	c #1A386A",
"9%	c #09518B",
"0%	c #0068A5",
"a%	c #0084C5",
"b%	c #1884C0",
"c%	c #3D79B0",
"d%	c #083A7A",
"e%	c #4085D0",
"f%	c #6CBAFF",
"g%	c #2775C8",
"h%	c #0254AC",
"i%	c #5BA7F6",
"j%	c #256BB8",
"k%	c #003E8A",
"l%	c #264C85",
"                                                                ",
"                            . + @                               ",
"                    # $ % & * = - ; > ,                         ",
"                  ' ) ! ~ { ] ^ / ( _ : < [     }               ",
"                | 1 2 3 4 5 6 7 8 9 0 a b c d e f g h           ",
"              i j k l l m n o p q r s t u v w x y z A B C D E F ",
"            G H I J K L M N O P Q R S T U V W X Y Z `  ...+.@.  ",
"          #.$.%.&.*.=.-.;.>.,.'.).!.~.{.].^./.(._.:.<.<.[.}.    ",
"          |.1.2.3.4.5.6.7.8.9.0.a.b.#.c.d.e.f.g.h.i.j.j.k.l.    ",
"        m.n.o.p.q.r.s.t.u.v.w.x.y.z.A.B.C.D.E.F.G.H.I.J.K.L.    ",
"        M.N.O.P.Q.R.S.T.U.V.W.X.Y.Z.`. +.+++@+#+$+%+&+*+=+-+    ",
"        ;+>+,+'+)+!+~+{+]+^+/+(+_+:+<+[+}+|+1+2+3+4+5+6+7+      ",
"        8+9+'+0+a+b+c+d+e+f+g+h+i+j+k+l+m+n+o+p+q+r+s+t+        ",
"        u+v+w+x+y+z+A+B+C+D+E+F+G+H+I+J+K+L+M+N+O+P+Q+R+        ",
"        S+T+U+V+W+X+Y+Z+`+ @.@+@@@#@$@%@&@*@=@-@;@>@,@'@        ",
"      )@!@~@{@]@^@/@(@_@:@<@[@}@|@1@2@3@4@5@6@7@8@9@0@a@        ",
"      b@c@d@e@f@2@g@h@i@j@k@l@m@2@n@2@o@p@q@r@s@t@u@v@w@        ",
"      x@y@z@A@2@B@C@D@E@F@G@H@E@I@J@2@K@L@M@N@O@P@Q@R@S@        ",
"      T@w+U@V@W@X@Y@Z@`@j@ #.#+#@#2@##2@$#%#&#*#=#-#;#>#        ",
"      ,#'#)#!#~#{#]#^#/#(#_#:#<#[#}#|#2@1#2#3#4#5#6#7#8#        ",
"      9#0#0+a#b#c#d#e#f#g#h#i#j#k#l#2@m#n#o#p#q#r#s#t#u#        ",
"        v#w#x#y#z#A#B#C#D#E#F#G#H#I#J#K#L#M#N#r#O#P#Q#R#        ",
"        S#T#U#V#W#X#Y#Z#`# $.$+$@$#$$$%$2@&$*$=$t#-$;$          ",
"        >$,$'$)$!$~${$]$^$/$($_$:$<$[$}$|$1$2$d#3$4$5$6$        ",
"          7$Q#8$9$0$a$b$c$d$e$f$g$)#r#h$i$s#j$7#j$k$l$m$        ",
"            n$o$p$q$r$s$t$u$v$w$x$y$*#z$4#A$B$C$Q#D$E$F$        ",
"            G$H$I$J$K$L$M$N$O$P$Q$R$S$T$U$V$W$X$Y$Z$`$          ",
"                 %.%+%@%#%$%%%&%*%=%-%;%>%,%'%)%!%~%{%          ",
"                  ]%^%/%(%_%:%<%[%}%|%1%2%3%4%5%6%7%            ",
"                      8%9%0%a%b%c%d%e%f%g%h%i%j%k%              ",
"                              l%                                ",
"                                                                "};
